<svg width="20" height="20" viewBox="0 0 20 20" fill="none" xmlns="http://www.w3.org/2000/svg">
<path d="M12.8712 3.49786H3.57363C2.70121 3.49786 1.99263 4.20644 1.99263 5.07886V18.419C1.99263 19.2914 2.70121 20 3.57363 20H12.8712C13.7436 20 14.4522 19.2914 14.4522 18.419V5.07886C14.4481 4.20644 13.7395 3.49786 12.8712 3.49786ZM13.3422 18.4149C13.3422 18.6771 13.1292 18.89 12.8671 18.89H3.56953C3.3074 18.89 3.09441 18.6771 3.09441 18.4149V5.07886C3.09441 4.81673 3.3074 4.60374 3.56953 4.60374H12.8671C13.1292 4.60374 13.3422 4.81673 13.3422 5.07886V18.4149Z" fill="black"/>
<path d="M16.4264 0H7.12882C6.2564 0 5.54782 0.708581 5.54782 1.581C5.54782 1.88818 5.79357 2.13393 6.10076 2.13393C6.40795 2.13393 6.6537 1.88818 6.6537 1.581C6.6537 1.31886 6.86668 1.10588 7.12882 1.10588H16.4264C16.6885 1.10588 16.9015 1.31886 16.9015 1.581V14.9212C16.9015 15.1833 16.6885 15.3963 16.4264 15.3963C16.1192 15.3963 15.8734 15.642 15.8734 15.9492C15.8734 16.2564 16.1192 16.5021 16.4264 16.5021C17.2988 16.5021 18.0074 15.7936 18.0074 14.9212V1.581C18.0074 0.708581 17.2988 0 16.4264 0Z" fill="black"/>
</svg>
