<svg width="28" height="18" viewBox="0 0 28 18" fill="none" xmlns="http://www.w3.org/2000/svg">
<path fill-rule="evenodd" clip-rule="evenodd" d="M27.125 8.99999C27.125 8.75135 27.0262 8.5129 26.8504 8.33708C26.6746 8.16127 26.4361 8.06249 26.1875 8.06249H4.07559L9.97622 2.16374C10.0634 2.07658 10.1325 1.9731 10.1797 1.85921C10.2269 1.74533 10.2512 1.62326 10.2512 1.49999C10.2512 1.37672 10.2269 1.25466 10.1797 1.14078C10.1325 1.02689 10.0634 0.923409 9.97622 0.836244C9.88905 0.749079 9.78557 0.679936 9.67169 0.632763C9.5578 0.58559 9.43574 0.56131 9.31247 0.56131C9.1892 0.56131 9.06713 0.58559 8.95325 0.632763C8.83936 0.679936 8.73588 0.749079 8.64872 0.836244L1.14872 8.33624C1.06141 8.42333 0.992143 8.52678 0.944881 8.64068C0.897619 8.75458 0.873291 8.87668 0.873291 8.99999C0.873291 9.12331 0.897619 9.24541 0.944881 9.35931C0.992143 9.4732 1.06141 9.57666 1.14872 9.66374L8.64872 17.1637C8.73588 17.2509 8.83936 17.3201 8.95325 17.3672C9.06713 17.4144 9.1892 17.4387 9.31247 17.4387C9.43574 17.4387 9.5578 17.4144 9.67169 17.3672C9.78557 17.3201 9.88905 17.2509 9.97622 17.1637C10.0634 17.0766 10.1325 16.9731 10.1797 16.8592C10.2269 16.7453 10.2512 16.6233 10.2512 16.5C10.2512 16.3767 10.2269 16.2547 10.1797 16.1408C10.1325 16.0269 10.0634 15.9234 9.97622 15.8362L4.07559 9.93749H26.1875C26.4361 9.93749 26.6746 9.83872 26.8504 9.66291C27.0262 9.48709 27.125 9.24863 27.125 8.99999Z" fill="#1E1E1E"/>
</svg>
