<svg width="220" height="171" viewBox="0 0 220 171" fill="none" xmlns="http://www.w3.org/2000/svg">
<path d="M53.378 30.4709C56.5541 30.4709 59.1289 27.8962 59.1289 24.72C59.1289 21.5439 56.5541 18.9692 53.378 18.9692C50.2019 18.9692 47.6271 21.5439 47.6271 24.72C47.6271 27.8962 50.2019 30.4709 53.378 30.4709Z" fill="#6CFEA0" fill-opacity="0.2"/>
<path d="M151.88 5.08925C124.064 -1.94808 101.826 -0.181792 72.3899 17.4046C71.7154 10.9792 54.7966 -8.30393 34.1644 5.23528C12.1762 2.51632 12.1762 25.186 12.1762 25.186C12.1762 25.186 0.159941 46.3188 2.0247e-06 54.281C-0.11126 59.6077 3.10143 61.0471 6.17505 61.9651C22.0647 52.9181 36.487 55.0668 48.2043 56.8192C54.3098 57.7301 59.6017 58.502 63.5585 57.3894C64.9284 56.993 66.3679 57.8066 66.7573 59.1835C67.1467 60.5534 66.34 61.9929 64.9701 62.3892C59.9355 63.8009 54.1429 62.9456 47.4394 61.9442C36.9529 60.3796 24.1439 58.5646 10.3891 65.6645C23.4485 88.4176 59.6365 96.1364 85.9222 77.9659C91.6591 78.3275 99.1832 79.1829 107.298 79.8504C108.793 79.9687 107.326 84.6973 105.873 89.412C105.365 91.0532 85.9639 95.1142 85.5814 96.5537C84.8791 99.2587 103.223 97.0544 104.531 98.9249C105.831 100.809 102.166 109.418 103.856 113.486C104.983 116.191 114.148 113.41 116.714 107.047C118.007 103.876 112.59 97.5967 113.793 95.0725C117.409 87.5414 120.566 80.6571 121.13 80.671C124.892 80.7892 128.64 80.7962 132.284 80.6223C139.877 80.2746 147.207 79.5653 153.994 78.9743C154.856 78.8978 156.302 81.9296 157.832 85.4622C158.528 87.0755 145.121 89.5233 145.809 91.1088C147.221 94.3493 159.001 92.1658 163.395 96.2129C167.797 100.274 167.936 111.205 171.177 112.457C172.964 113.146 180.453 107.77 178.958 100.955C176.775 91.0114 164.8 78.1885 165.426 78.1606C173.736 77.7782 180.641 78.1746 185.384 80.6293C202.977 89.7319 190.126 157.449 146.143 160.842C122.187 162.685 114.183 143.52 117.159 132.832C120.1 122.269 133.285 116.525 142.429 117.895C151.553 119.23 153.25 127.7 149.196 133.437C148.66 134.195 148.041 134.897 147.381 135.551C145.809 133.959 143.639 132.971 141.233 132.971C136.456 132.971 132.597 136.844 132.597 141.608C132.597 146.385 136.463 150.238 141.233 150.238C145.545 150.238 149.091 147.074 149.738 142.922C152.061 142.345 154.355 141.218 156.302 139.195C164.077 131.073 162.387 116.525 147.652 111.532C131.164 105.955 108.056 116.317 107.375 133.91C106.7 151.496 122.84 172.128 150.635 170.543C191.906 168.165 221.592 125.315 219.93 85.7612C218.498 52.2505 200.599 17.4046 151.88 5.08925ZM48.1348 43.12C38.8861 43.12 31.3898 35.6237 31.3898 26.3751C31.3898 17.1264 38.8861 9.63014 48.1348 9.63014C57.3765 9.63014 64.8728 17.1264 64.8728 26.3751C64.8797 35.6237 57.3834 43.12 48.1348 43.12Z" fill="#6CFEA0" fill-opacity="0.2"/>
</svg>
