<svg width="60" height="60" viewBox="0 0 60 60" fill="none" xmlns="http://www.w3.org/2000/svg">
<path d="M21.0801 32.1315C21.4374 30.7516 22.1643 29.4826 23.2115 28.3614C21.462 27.228 19.9959 25.6756 18.9856 23.8522H22.3245C22.768 25.2814 23.3347 26.538 23.9507 27.6345C24.382 27.2403 24.8501 26.883 25.3429 26.575C25.577 26.4148 25.8111 26.267 26.0452 26.1315C25.6633 25.4415 25.3183 24.6777 25.0103 23.8522H28.7803V25.1951C29.0021 25.1581 29.2238 25.1335 29.4456 25.1335C29.7043 25.1089 29.9631 25.0965 30.2095 25.0965C30.5914 25.0965 30.961 25.1212 31.3183 25.1705V23.8645H35.1006C34.8173 24.6653 34.4723 25.4046 34.115 26.0699C34.1889 26.1068 34.2505 26.1438 34.3245 26.1807C35.1376 26.6366 35.7413 27.1664 36.1602 27.6222C36.7762 26.5257 37.3429 25.269 37.7742 23.8522H41.113C40.1273 25.6263 38.7351 27.1294 37.0473 28.2506C37.3799 28.497 37.7002 28.7926 37.9959 29.1623C38.5996 29.9261 38.9939 30.8871 39.191 32.0329C43.9097 29.0144 47.039 23.729 47.039 17.729C47.039 8.36554 39.4251 0.739258 30.0493 0.739258C20.6859 0.739258 13.0596 8.35322 13.0596 17.729C13.0596 23.7906 16.2752 29.1376 21.0801 32.1315ZM42.1848 14.1315C42.5175 15.2649 42.7023 16.4723 42.7023 17.7167C42.7023 18.961 42.5175 20.1684 42.1848 21.3019H38.3778C38.5627 20.1807 38.6735 18.998 38.6735 17.7167C38.6735 16.4354 38.5627 15.2403 38.3778 14.1315H42.1848ZM41.1253 11.5811H37.7865C37.0965 9.35117 36.0986 7.52776 35.0637 6.08628C37.6386 7.20743 39.77 9.15404 41.1253 11.5811ZM31.3183 5.61811C32.5503 6.86246 34.078 8.82139 35.0883 11.5935H31.3183V5.61811ZM31.3183 14.1315H35.7783C35.9877 15.228 36.1232 16.423 36.1232 17.7167C36.1232 19.0103 36 20.2054 35.7906 21.3019H31.3183V14.1315ZM28.7803 21.3142H24.3203C24.1109 20.2177 23.9754 19.0226 23.9754 17.729C23.9754 16.4354 24.0986 15.2403 24.308 14.1438H28.7803V21.3142ZM28.7803 11.5811H24.998C25.9959 8.79675 27.5483 6.8255 28.7803 5.59347V11.5811ZM25.0349 6.0986C24 7.54008 23.0021 9.36349 22.3121 11.5935H18.9733C20.3286 9.15404 22.46 7.20743 25.0349 6.0986ZM17.384 17.7167C17.384 16.4723 17.5688 15.2649 17.9015 14.1315H21.7084C21.5236 15.2526 21.4128 16.4354 21.4128 17.7167C21.4128 18.998 21.5236 20.1931 21.7084 21.3019H17.9015C17.5688 20.1684 17.384 18.961 17.384 17.7167Z" fill="black"/>
<path d="M57.0678 50.7597C54.2341 49.6755 52.5462 48.579 52.5462 48.579L50.3655 55.4784L50.0698 56.4147L49.0965 53.6427C51.3388 50.5133 48.924 50.3654 48.5051 50.3654C48.5051 50.3654 48.5051 50.3654 48.4928 50.3654C48.4928 50.3654 48.4928 50.3654 48.4805 50.3654C48.4805 50.3654 48.4805 50.3654 48.4682 50.3654C48.4682 50.3654 48.4682 50.3654 48.4558 50.3654C48.037 50.3654 45.6222 50.5133 47.8645 53.6427L46.8912 56.4147L46.5955 55.4784L44.4148 48.579C44.4148 48.579 43.4661 49.195 41.7906 49.9712C41.3717 49.6509 40.8665 49.3798 40.2505 49.1457C36.8871 47.8644 34.8665 46.5461 34.8665 46.5461L32.2669 54.7515L31.9097 55.8603L30.7515 52.5708C33.4251 48.85 30.5544 48.6652 30.0493 48.6652C30.0493 48.6652 30.0493 48.6652 30.037 48.6652C30.037 48.6652 30.037 48.6652 30.0246 48.6652C30.0246 48.6652 30.0246 48.6652 30.0123 48.6652C30.0123 48.6652 30.0123 48.6652 30 48.6652C29.5072 48.6652 26.6242 48.85 29.2977 52.5708L28.1396 55.8603L27.7823 54.7515L25.1828 46.5461C25.1828 46.5461 23.1622 47.8644 19.7988 49.1457C19.1828 49.3675 18.6776 49.6385 18.2587 49.9712C16.5832 49.2073 15.6345 48.579 15.6345 48.579L13.4538 55.4784L13.1581 56.4147L12.1848 53.6427C14.4271 50.5133 12.0123 50.3654 11.5934 50.3654C11.5934 50.3654 11.5934 50.3654 11.5811 50.3654C11.5811 50.3654 11.5811 50.3654 11.5688 50.3654C11.5688 50.3654 11.5688 50.3654 11.5565 50.3654C11.5441 50.3654 11.5565 50.3654 11.5441 50.3654C11.1253 50.3654 8.71047 50.5133 10.9528 53.6427L9.97947 56.4147L9.68378 55.4784L7.50308 48.579C7.50308 48.579 5.80287 49.6878 2.98152 50.7597C-0.135523 51.8932 0.0616016 54.4558 0 59.2607H10.9774H11.5688H16.2259H23.1253H29.2977H30.0123H36.8624H43.7618H47.8522H48.4435H60C59.9877 54.4558 60.1848 51.8932 57.0678 50.7597Z" fill="black"/>
<path d="M46.9404 32.8583C46.4723 33.0185 46.041 33.2526 45.6468 33.5236C45.1663 33.8316 44.7228 34.2013 44.3162 34.6201C43.6879 35.2608 43.1211 36.0986 42.887 37.1335C42.6776 37.9097 42.7269 38.7228 42.8994 39.5852C42.9486 39.844 43.0102 40.0904 43.1088 40.3491C42.6283 40.2998 42.0739 40.5832 42.6037 42.4436C42.9856 43.8111 43.3429 44.193 43.6139 44.2054C43.8603 45.8316 45.117 47.8891 47.1622 48.6037C48 48.8994 48.924 48.8994 49.7741 48.6037C51.7946 47.8768 53.0883 45.8193 53.3347 44.2054C53.6057 44.1807 53.963 43.7988 54.3449 42.4436C54.8747 40.5832 54.308 40.2998 53.8398 40.3491C53.9261 40.0904 54 39.8316 54.0493 39.5852C54.8501 34.7557 52.4723 34.5955 52.4723 34.5955C52.4723 34.5955 52.078 33.844 51.0431 33.2649C50.3532 32.8583 49.3799 32.538 48.0985 32.6489C47.7043 32.6489 47.31 32.7228 46.9404 32.8583Z" fill="black"/>
<path d="M6.75153 44.2054C6.99794 45.8316 8.25461 47.8891 10.2998 48.6037C11.1376 48.8994 12.0616 48.8994 12.9117 48.6037C14.9322 47.8768 16.2259 45.8193 16.4723 44.2054C16.7433 44.1807 17.1006 43.7988 17.4825 42.4436C18.0123 40.5832 17.4456 40.2998 16.9774 40.3491C17.0636 40.0904 17.1376 39.8316 17.1869 39.5852C17.9877 34.7557 15.6098 34.5955 15.6098 34.5955C15.6098 34.5955 15.2156 33.844 14.1807 33.2649C13.4908 32.8583 12.5174 32.538 11.2361 32.6489C10.8172 32.6735 10.4353 32.7475 10.0657 32.8707C9.59753 33.0308 9.16632 33.2649 8.78439 33.536C8.30389 33.844 7.86036 34.2136 7.45379 34.6325C6.82545 35.2731 6.25872 36.1109 6.02463 37.1458C5.81519 37.922 5.86447 38.7351 6.03695 39.5976C6.08623 39.8563 6.14784 40.1027 6.2464 40.3614C5.77823 40.3121 5.21149 40.5955 5.74127 42.4559C6.1232 43.7988 6.48048 44.1807 6.75153 44.2054Z" fill="black"/>
<path d="M23.0513 39.228C23.5072 40.8543 23.9384 41.2978 24.2587 41.3348C24.5544 43.2691 26.0452 45.7208 28.4846 46.5709C29.4825 46.9282 30.5914 46.9282 31.5893 46.5586C33.9918 45.6962 35.5318 43.2445 35.8275 41.3225C36.1478 41.2978 36.579 40.842 37.0349 39.2157C37.6632 36.9981 36.9979 36.6654 36.4312 36.727C36.5421 36.419 36.616 36.111 36.6776 35.8153C37.6386 30.074 34.8049 29.8769 34.8049 29.8769C34.8049 29.8769 34.3367 28.9775 33.1047 28.2876C32.2792 27.7948 31.1211 27.4128 29.6057 27.5484C29.1129 27.573 28.6447 27.6716 28.2135 27.8194C27.6591 28.0042 27.1417 28.2876 26.6858 28.6079C26.1191 28.9652 25.577 29.4087 25.1088 29.9139C24.3573 30.6777 23.692 31.6634 23.4086 32.9077C23.1622 33.8317 23.2238 34.7927 23.4209 35.8276C23.4702 36.1356 23.5564 36.4313 23.6673 36.7393C23.0883 36.69 22.423 37.0104 23.0513 39.228Z" fill="black"/>
</svg>
