<svg width="1255" height="432" viewBox="0 0 1255 432" fill="none" xmlns="http://www.w3.org/2000/svg">
<path d="M1253.6 4L1257.6 4L1257.6 -1.95827e-06L1253.6 -2.30796e-06L1253.6 4ZM1253.6 214L1253.6 218L1257.6 218L1257.6 214L1253.6 214ZM1128.5 205.75L1130.47 202.27L1130.45 202.258L1130.43 202.247L1128.5 205.75ZM1107.65 184.75L1111.26 183.029L1111.25 183.003L1111.24 182.978L1107.65 184.75ZM1108.25 131.95L1111.7 133.982L1111.7 133.975L1111.7 133.968L1108.25 131.95ZM1129.1 114.25L1130.7 117.916L1140.25 113.75L1130.36 110.455L1129.1 114.25ZM1109.6 102.85L1112.37 99.9667L1112.37 99.9667L1109.6 102.85ZM1097.9 85.6L1094.19 87.0855L1094.19 87.0856L1097.9 85.6ZM1097.75 43.45L1101.53 44.746L1101.54 44.7305L1101.54 44.7149L1097.75 43.45ZM1109.45 23.65L1106.5 20.9494L1106.49 20.9617L1106.48 20.9741L1109.45 23.65ZM1131.05 9.39998L1132.54 13.1139L1132.54 13.111L1132.55 13.1081L1131.05 9.39998ZM1218.95 36.25L1222.95 36.25L1222.95 32.25L1218.95 32.25L1218.95 36.25ZM1141.55 40.6L1143.62 44.0237L1143.63 44.014L1143.65 44.0041L1141.55 40.6ZM1131.65 51.4L1135.32 52.9857L1135.33 52.9652L1135.34 52.9445L1131.65 51.4ZM1132.1 80.2L1128.45 81.8384L1132.1 80.2ZM1144.4 92.05L1146.24 88.4963L1146.21 88.4841L1146.19 88.4723L1144.4 92.05ZM1218.95 96.7L1218.95 100.7L1222.95 100.7L1222.95 96.7L1218.95 96.7ZM1218.95 128.05L1222.95 128.05L1222.95 124.05L1218.95 124.05L1218.95 128.05ZM1145.3 135.55L1142.76 132.456L1145.3 135.55ZM1138.55 167.95L1142.31 166.576L1142.29 166.536L1142.28 166.496L1138.55 167.95ZM1147.55 178L1149.61 174.57L1149.58 174.553L1149.55 174.537L1147.55 178ZM1218.95 182.05L1218.95 186.05L1222.95 186.05L1222.95 182.05L1218.95 182.05ZM1249.6 4L1249.6 214L1257.6 214L1257.6 4L1249.6 4ZM1253.6 210L1168.4 210L1168.4 218L1253.6 218L1253.6 210ZM1168.4 210C1151.86 210 1139.34 207.297 1130.47 202.27L1126.53 209.23C1137.06 215.203 1151.14 218 1168.4 218L1168.4 210ZM1130.43 202.247C1121.23 197.178 1114.94 190.748 1111.26 183.029L1104.04 186.471C1108.56 195.952 1116.17 203.522 1126.57 209.253L1130.43 202.247ZM1111.24 182.978C1107.31 175.024 1105.35 166.68 1105.35 157.9L1097.35 157.9C1097.35 167.92 1099.59 177.476 1104.06 186.522L1111.24 182.978ZM1105.35 157.9C1105.35 149.078 1107.48 141.136 1111.7 133.982L1104.8 129.918C1099.82 138.364 1097.35 147.722 1097.35 157.9L1105.35 157.9ZM1111.7 133.968C1115.71 127.107 1121.96 121.73 1130.7 117.916L1127.5 110.584C1117.44 114.97 1109.79 121.393 1104.8 129.932L1111.7 133.968ZM1130.36 110.455C1123.05 108.017 1117.09 104.501 1112.37 99.9667L1106.83 105.733C1112.51 111.199 1119.55 115.283 1127.84 118.045L1130.36 110.455ZM1112.37 99.9667C1107.57 95.3481 1104 90.0707 1101.61 84.1144L1094.19 87.0856C1097 94.1293 1101.23 100.352 1106.83 105.733L1112.37 99.9667ZM1101.61 84.1144C1099.2 78.0869 1098 71.8411 1098 65.35L1090 65.35C1090 72.8589 1091.4 80.1131 1094.19 87.0855L1101.61 84.1144ZM1098 65.35C1098 58.5155 1099.17 51.6527 1101.53 44.746L1093.97 42.154C1091.33 49.8472 1090 57.5845 1090 65.35L1098 65.35ZM1101.54 44.7149C1103.76 38.0694 1107.37 31.9434 1112.42 26.3259L1106.48 20.9741C1100.73 27.3565 1096.54 34.4306 1093.96 42.1851L1101.54 44.7149ZM1112.4 26.3506C1117.32 20.9783 1123.98 16.5371 1132.54 13.1139L1129.56 5.68608C1120.12 9.46282 1112.38 14.5217 1106.5 20.9494L1112.4 26.3506ZM1132.55 13.1081C1140.84 9.75603 1151.24 7.99999 1163.9 7.99999L1163.9 -1.01498e-05C1150.56 -1.13163e-05 1139.06 1.84395 1129.55 5.69185L1132.55 13.1081ZM1163.9 7.99999L1253.6 8L1253.6 -2.30796e-06L1163.9 -1.01498e-05L1163.9 7.99999ZM1218.95 32.25L1161.35 32.25L1161.35 40.25L1218.95 40.25L1218.95 32.25ZM1161.35 32.25C1152.48 32.25 1145.03 33.7498 1139.45 37.1958L1143.65 44.0041C1147.47 41.6502 1153.22 40.25 1161.35 40.25L1161.35 32.25ZM1139.48 37.1763C1134.11 40.4237 1130.15 44.6246 1127.96 49.8554L1135.34 52.9445C1136.75 49.5754 1139.39 46.5763 1143.62 44.0237L1139.48 37.1763ZM1127.98 49.8142C1125.88 54.6819 1124.8 59.6697 1124.8 64.75L1132.8 64.75C1132.8 60.8303 1133.62 56.9181 1135.32 52.9857L1127.98 49.8142ZM1124.8 64.75C1124.8 70.7116 1126.02 76.4203 1128.45 81.8384L1135.75 78.5616C1133.78 74.1797 1132.8 69.5884 1132.8 64.75L1124.8 64.75ZM1128.45 81.8384C1131.12 87.7724 1136 92.3205 1142.61 95.6277L1146.19 88.4723C1140.8 85.7795 1137.48 82.4275 1135.75 78.5616L1128.45 81.8384ZM1142.56 95.6037C1149.39 99.1315 1158.79 100.7 1170.35 100.7L1170.35 92.7C1159.31 92.7 1151.41 91.1685 1146.24 88.4963L1142.56 95.6037ZM1170.35 100.7L1218.95 100.7L1218.95 92.7L1170.35 92.7L1170.35 100.7ZM1222.95 96.7L1222.95 36.25L1214.95 36.25L1214.95 96.7L1222.95 96.7ZM1218.95 124.05L1173.2 124.05L1173.2 132.05L1218.95 132.05L1218.95 124.05ZM1173.2 124.05C1160.28 124.05 1149.89 126.614 1142.76 132.456L1147.84 138.644C1152.91 134.486 1161.12 132.05 1173.2 132.05L1173.2 124.05ZM1142.76 132.456C1135.68 138.261 1132.15 146.074 1132.15 155.5L1140.15 155.5C1140.15 148.326 1142.72 142.839 1147.84 138.644L1142.76 132.456ZM1132.15 155.5C1132.15 160.221 1133.05 164.863 1134.82 169.404L1142.28 166.496C1140.85 162.837 1140.15 159.179 1140.15 155.5L1132.15 155.5ZM1134.79 169.324C1136.67 174.466 1140.4 178.488 1145.55 181.463L1149.55 174.537C1145.7 172.312 1143.43 169.634 1142.31 166.576L1134.79 169.324ZM1145.49 181.43C1150.9 184.674 1158.35 186.05 1167.35 186.05L1167.35 178.05C1158.95 178.05 1153.2 176.726 1149.61 174.57L1145.49 181.43ZM1167.35 186.05L1218.95 186.05L1218.95 178.05L1167.35 178.05L1167.35 186.05ZM1222.95 182.05L1222.95 128.05L1214.95 128.05L1214.95 182.05L1222.95 182.05ZM1051.45 3.99998L1055.45 3.99998L1055.45 -1.96306e-05L1051.45 -1.99803e-05L1051.45 3.99998ZM1051.45 214L1051.45 218L1055.45 218L1055.45 214L1051.45 214ZM1016.8 214L1012.8 214L1012.8 218L1016.8 218L1016.8 214ZM1016.8 3.99998L1016.8 -2.30095e-05L1012.8 -2.33592e-05L1012.8 3.99998L1016.8 3.99998ZM1047.45 3.99998L1047.45 214L1055.45 214L1055.45 3.99998L1047.45 3.99998ZM1051.45 210L1016.8 210L1016.8 218L1051.45 218L1051.45 210ZM1020.8 214L1020.8 3.99998L1012.8 3.99998L1012.8 214L1020.8 214ZM1016.8 7.99998L1051.45 7.99998L1051.45 -1.99803e-05L1016.8 -2.30095e-05L1016.8 7.99998ZM965.026 3.99997L969.026 3.99997L969.026 -2.71862e-05L965.026 -2.75359e-05L965.026 3.99997ZM965.026 214L965.026 218L969.026 218L969.026 214L965.026 214ZM932.026 214L928.673 216.182L929.856 218L932.026 218L932.026 214ZM845.926 81.7L842.572 83.8799L842.573 83.8818L845.926 81.7ZM841.576 74.35L845.078 72.4177L845.038 72.345L844.995 72.2741L841.576 74.35ZM837.226 66.1L840.881 64.4754L833.229 66.2665L837.226 66.1ZM837.676 74.2L841.674 74.0667L841.671 74.0002L841.667 73.9339L837.676 74.2ZM837.826 214L837.826 218L841.826 218L841.826 214L837.826 214ZM803.326 214L799.326 214L799.326 218L803.326 218L803.326 214ZM803.326 3.99996L803.326 -4.16722e-05L799.326 -4.20219e-05L799.326 3.99996L803.326 3.99996ZM834.976 3.99996L838.314 1.79595L837.128 -3.87171e-05L834.976 -3.89053e-05L834.976 3.99996ZM922.726 136.9L926.156 134.842L926.111 134.768L926.064 134.696L922.726 136.9ZM927.076 144.25L930.578 142.318L930.553 142.272L930.527 142.227L927.076 144.25ZM931.426 152.2L927.909 154.105L935.371 151.542L931.426 152.2ZM930.826 144.4L934.826 144.4L934.826 144.326L934.823 144.252L930.826 144.4ZM930.676 3.99997L930.676 -3.05389e-05L926.676 -3.08886e-05L926.676 3.99997L930.676 3.99997ZM961.026 3.99997L961.026 214L969.026 214L969.026 3.99997L961.026 3.99997ZM965.026 210L932.026 210L932.026 218L965.026 218L965.026 210ZM935.378 211.818L849.278 79.5181L842.573 83.8818L928.673 216.182L935.378 211.818ZM849.28 79.52C848.048 77.6249 846.648 75.263 845.078 72.4177L838.073 76.2823C839.704 79.2369 841.204 81.775 842.572 83.8799L849.28 79.52ZM844.995 72.2741C843.374 69.6039 842.005 67.0045 840.881 64.4754L833.571 67.7245C834.847 70.5955 836.378 73.496 838.157 76.4259L844.995 72.2741ZM833.229 66.2665C833.331 68.7067 833.483 71.4407 833.685 74.466L841.667 73.9339C841.469 70.9592 841.321 68.2932 841.222 65.9335L833.229 66.2665ZM833.678 74.3332C833.777 77.3084 833.826 79.7604 833.826 81.7L841.826 81.7C841.826 79.6395 841.774 77.0915 841.674 74.0667L833.678 74.3332ZM833.826 81.7L833.826 214L841.826 214L841.826 81.7L833.826 81.7ZM837.826 210L803.326 210L803.326 218L837.826 218L837.826 210ZM807.326 214L807.326 3.99996L799.326 3.99996L799.326 214L807.326 214ZM803.326 7.99996L834.976 7.99996L834.976 -3.89053e-05L803.326 -4.16722e-05L803.326 7.99996ZM831.638 6.20397L919.388 139.104L926.064 134.696L838.314 1.79595L831.638 6.20397ZM919.296 138.958C920.487 140.942 921.929 143.38 923.625 146.273L930.527 142.227C928.822 139.32 927.365 136.857 926.156 134.842L919.296 138.958ZM923.573 146.182C925.17 149.075 926.614 151.716 927.909 154.105L934.943 150.295C933.637 147.884 932.182 145.225 930.578 142.318L923.573 146.182ZM935.371 151.542C935.013 149.389 934.826 147.012 934.826 144.4L926.826 144.4C926.826 147.388 927.039 150.211 927.48 152.858L935.371 151.542ZM934.823 144.252C934.725 141.593 934.676 139.143 934.676 136.9L926.676 136.9C926.676 139.257 926.727 141.807 926.829 144.548L934.823 144.252ZM934.676 136.9L934.676 3.99997L926.676 3.99997L926.676 136.9L934.676 136.9ZM930.676 7.99997L965.026 7.99997L965.026 -2.75359e-05L930.676 -3.05389e-05L930.676 7.99997ZM769.681 3.99996L773.43 5.39507L775.438 -4.41102e-05L769.681 -4.46135e-05L769.681 3.99996ZM691.531 214L691.531 218L694.311 218L695.28 215.395L691.531 214ZM658.831 214L655.082 215.395L656.052 218L658.831 218L658.831 214ZM580.681 3.99994L580.681 -6.11364e-05L574.925 -6.16396e-05L576.932 5.39505L580.681 3.99994ZM617.431 3.99994L621.192 2.63782L620.237 -5.76783e-05L617.431 -5.79236e-05L617.431 3.99994ZM634.381 50.7999L630.62 52.1621L631.576 54.7999L634.381 54.7999L634.381 50.7999ZM715.831 50.8L715.831 54.8L718.654 54.8L719.6 52.1407L715.831 50.8ZM732.481 3.99995L732.481 -4.78656e-05L729.659 -4.81124e-05L728.713 2.65919L732.481 3.99995ZM704.731 82.15L708.487 83.5262L710.457 78.15L704.731 78.15L704.731 82.15ZM645.781 82.15L645.781 78.15L640.068 78.15L642.023 83.5183L645.781 82.15ZM668.881 145.6L672.653 144.269L672.647 144.25L672.64 144.232L668.881 145.6ZM670.981 151.6L667.203 152.914L667.203 152.914L670.981 151.6ZM673.381 158.35L677.159 157.036L677.15 157.009L677.14 156.983L673.381 158.35ZM675.181 164.5L671.276 165.368L679.035 165.571L675.181 164.5ZM677.131 158.35L680.909 159.664L680.927 159.614L680.943 159.563L677.131 158.35ZM679.381 151.6L675.603 150.286L675.603 150.286L679.381 151.6ZM681.481 145.6L677.725 144.224L677.717 144.246L677.709 144.269L681.481 145.6ZM765.932 2.60484L687.782 212.605L695.28 215.395L773.43 5.39507L765.932 2.60484ZM691.531 210L658.831 210L658.831 218L691.531 218L691.531 210ZM662.58 212.605L584.43 2.60483L576.932 5.39505L655.082 215.395L662.58 212.605ZM580.681 7.99994L617.431 7.99994L617.431 -5.79236e-05L580.681 -6.11364e-05L580.681 7.99994ZM613.67 5.36206L630.62 52.1621L638.142 49.4378L621.192 2.63782L613.67 5.36206ZM634.381 54.7999L715.831 54.8L715.831 46.8L634.381 46.7999L634.381 54.7999ZM719.6 52.1407L736.25 5.34071L728.713 2.65919L712.063 49.4592L719.6 52.1407ZM732.481 7.99995L769.681 7.99996L769.681 -4.46135e-05L732.481 -4.78656e-05L732.481 7.99995ZM704.731 78.15L645.781 78.15L645.781 86.15L704.731 86.15L704.731 78.15ZM642.023 83.5183L665.123 146.968L672.64 144.232L649.54 80.7815L642.023 83.5183ZM665.109 146.931C665.707 148.624 666.405 150.618 667.203 152.914L674.759 150.286C673.958 147.982 673.256 145.976 672.653 144.269L665.109 146.931ZM667.203 152.914C668.009 155.231 668.815 157.499 669.622 159.717L677.14 156.983C676.347 154.801 675.553 152.569 674.759 150.286L667.203 152.914ZM669.603 159.664C670.368 161.861 670.919 163.758 671.276 165.368L679.086 163.632C678.644 161.642 677.995 159.439 677.159 157.036L669.603 159.664ZM679.035 165.571C679.507 163.873 680.129 161.906 680.909 159.664L673.353 157.036C672.533 159.394 671.856 161.527 671.327 163.429L679.035 165.571ZM680.943 159.563C681.632 157.398 682.37 155.182 683.159 152.914L675.603 150.286C674.792 152.618 674.031 154.901 673.32 157.137L680.943 159.563ZM683.159 152.914C683.958 150.618 684.656 148.624 685.253 146.931L677.709 144.269C677.107 145.976 676.405 147.982 675.603 150.286L683.159 152.914ZM685.237 146.976L708.487 83.5262L700.975 80.7737L677.725 144.224L685.237 146.976ZM546.959 3.99994L550.959 3.99994L550.959 -6.37348e-05L546.959 -6.40844e-05L546.959 3.99994ZM546.959 214L546.959 218L550.959 218L550.959 214L546.959 214ZM513.959 214L510.607 216.182L511.79 218L513.959 218L513.959 214ZM427.859 81.6999L424.506 83.8799L424.507 83.8817L427.859 81.6999ZM423.509 74.3499L427.012 72.4176L426.972 72.345L426.929 72.274L423.509 74.3499ZM419.159 66.0999L422.815 64.4754L415.163 66.2664L419.159 66.0999ZM419.609 74.1999L423.607 74.0667L423.605 74.0002L423.601 73.9339L419.609 74.1999ZM419.759 214L419.759 218L423.759 218L423.759 214L419.759 214ZM385.259 214L381.259 214L381.259 218L385.259 218L385.259 214ZM385.259 3.99992L385.259 -7.82207e-05L381.259 -7.85704e-05L381.259 3.99992L385.259 3.99992ZM416.909 3.99992L420.247 1.79591L419.062 -7.52656e-05L416.909 -7.54538e-05L416.909 3.99992ZM504.659 136.9L508.089 134.842L508.045 134.768L507.997 134.696L504.659 136.9ZM509.009 144.25L512.512 142.318L512.487 142.272L512.46 142.227L509.009 144.25ZM513.359 152.2L509.842 154.105L517.305 151.542L513.359 152.2ZM512.759 144.4L516.759 144.4L516.759 144.326L516.757 144.252L512.759 144.4ZM512.609 3.99993L512.609 -6.70874e-05L508.609 -6.74371e-05L508.609 3.99993L512.609 3.99993ZM542.959 3.99994L542.959 214L550.959 214L550.959 3.99994L542.959 3.99994ZM546.959 210L513.959 210L513.959 218L546.959 218L546.959 210ZM517.312 211.818L431.212 79.5181L424.507 83.8817L510.607 216.182L517.312 211.818ZM431.213 79.52C429.981 77.6248 428.582 75.263 427.012 72.4176L420.007 76.2822C421.637 79.2369 423.137 81.775 424.506 83.8799L431.213 79.52ZM426.929 72.274C425.307 69.6039 423.939 67.0044 422.815 64.4754L415.504 67.7245C416.78 70.5954 418.311 73.496 420.09 76.4258L426.929 72.274ZM415.163 66.2664C415.265 68.7067 415.417 71.4407 415.618 74.466L423.601 73.9339C423.402 70.9592 423.254 68.2932 423.156 65.9334L415.163 66.2664ZM415.612 74.3332C415.711 77.3084 415.759 79.7604 415.759 81.6999L423.759 81.6999C423.759 79.6395 423.708 77.0915 423.607 74.0667L415.612 74.3332ZM415.759 81.6999L415.759 214L423.759 214L423.759 81.6999L415.759 81.6999ZM419.759 210L385.259 210L385.259 218L419.759 218L419.759 210ZM389.259 214L389.259 3.99992L381.259 3.99992L381.259 214L389.259 214ZM385.259 7.99992L416.909 7.99992L416.909 -7.54538e-05L385.259 -7.82207e-05L385.259 7.99992ZM413.571 6.20393L501.321 139.104L507.997 134.696L420.247 1.79591L413.571 6.20393ZM501.229 138.958C502.42 140.942 503.863 143.38 505.559 146.273L512.46 142.227C510.756 139.32 509.299 136.857 508.089 134.842L501.229 138.958ZM505.507 146.182C507.103 149.075 508.548 151.716 509.842 154.105L516.877 150.295C515.571 147.884 514.116 145.225 512.512 142.318L505.507 146.182ZM517.305 151.542C516.946 149.389 516.759 147.012 516.759 144.4L508.759 144.4C508.759 147.388 508.973 150.211 509.414 152.858L517.305 151.542ZM516.757 144.252C516.658 141.593 516.609 139.143 516.609 136.9L508.609 136.9C508.609 139.257 508.661 141.807 508.762 144.548L516.757 144.252ZM516.609 136.9L516.609 3.99993L508.609 3.99993L508.609 136.9L516.609 136.9ZM512.609 7.99993L546.959 7.99994L546.959 -6.40844e-05L512.609 -6.70874e-05L512.609 7.99993ZM294.256 9.99991L292.319 13.4995L294.256 9.99991ZM321.406 34.8999L324.764 32.7256L324.752 32.707L324.739 32.6885L321.406 34.8999ZM336.256 69.8499L340.146 68.9153L340.144 68.9084L336.256 69.8499ZM320.956 182.35L317.604 180.168L320.956 182.35ZM293.806 207.85L291.822 204.377L291.81 204.384L291.798 204.39L293.806 207.85ZM219.256 211.3L217.639 214.958L217.639 214.958L219.256 211.3ZM195.706 195.1L198.622 192.361L198.611 192.35L198.6 192.338L195.706 195.1ZM181.456 174.25L179.738 170.638L176.236 172.304L177.793 175.856L181.456 174.25ZM212.356 159.55L215.664 157.301L213.735 154.464L210.638 155.938L212.356 159.55ZM223.006 172.75L225.872 169.959L223.006 172.75ZM235.906 181.6L237.51 177.935L237.496 177.929L237.482 177.923L235.906 181.6ZM277.756 177.85L280.02 181.148L277.756 177.85ZM293.806 159.7L297.336 161.582L297.345 161.564L297.355 161.545L293.806 159.7ZM302.356 135.1L298.437 134.298L298.436 134.307L302.356 135.1ZM302.056 81.8499L305.961 80.9822L305.959 80.9729L302.056 81.8499ZM292.756 57.5499L296.223 55.5551L296.217 55.5448L296.211 55.5344L292.756 57.5499ZM276.706 40.1499L278.949 36.8375L278.919 36.8177L278.89 36.7985L276.706 40.1499ZM228.856 41.0499L226.425 37.8739L226.417 37.8794L228.856 41.0499ZM211.906 60.3999L210.504 64.1459L213.605 65.3071L215.325 62.477L211.906 60.3999ZM180.256 48.5499L176.624 46.8737L174.819 50.7853L178.854 52.296L180.256 48.5499ZM196.456 24.0999L193.508 21.397L193.508 21.397L196.456 24.0999ZM220.456 6.99991L222.088 10.6519L222.095 10.6487L222.103 10.6454L220.456 6.99991ZM253.156 4.69992C268.855 4.69992 281.849 7.70371 292.319 13.4995L296.194 6.50034C284.263 -0.103877 269.858 -3.30008 253.156 -3.30008L253.156 4.69992ZM292.319 13.4995C302.972 19.3967 311.538 27.2607 318.073 37.1113L324.739 32.6885C317.475 21.7392 307.941 13.0031 296.194 6.50034L292.319 13.4995ZM318.049 37.0742C324.591 47.1765 329.369 58.406 332.369 70.7915L340.144 68.9084C336.944 55.6938 331.821 43.6233 324.764 32.7256L318.049 37.0742ZM332.367 70.7846C335.394 83.38 336.906 96.1164 336.906 109L344.906 109C344.906 95.4835 343.319 82.1198 340.146 68.9153L332.367 70.7846ZM336.906 109C336.906 121.36 335.349 133.785 332.226 146.28L339.987 148.22C343.263 135.115 344.906 122.039 344.906 109L336.906 109ZM332.226 146.28C329.129 158.668 324.251 169.956 317.604 180.168L324.309 184.532C331.461 173.544 336.684 161.432 339.987 148.22L332.226 146.28ZM317.604 180.168C311.058 190.224 302.481 198.286 291.822 204.377L295.791 211.323C307.531 204.614 317.055 195.676 324.309 184.532L317.604 180.168ZM291.798 204.39C281.333 210.464 268.511 213.6 253.156 213.6L253.156 221.6C269.602 221.6 283.879 218.236 295.814 211.31L291.798 204.39ZM253.156 213.6C240.473 213.6 229.75 211.566 220.874 207.642L217.639 214.958C227.763 219.434 239.64 221.6 253.156 221.6L253.156 213.6ZM220.874 207.642C211.792 203.626 204.405 198.518 198.622 192.361L192.791 197.839C199.408 204.882 207.72 210.573 217.639 214.958L220.874 207.642ZM198.6 192.338C192.576 186.027 188.107 179.46 185.12 172.644L177.793 175.856C181.205 183.64 186.237 190.973 192.813 197.862L198.6 192.338ZM183.175 177.862L214.075 163.162L210.638 155.938L179.738 170.638L183.175 177.862ZM209.049 161.799C212.562 166.966 216.257 171.552 220.14 175.54L225.872 169.959C222.356 166.348 218.951 162.134 215.664 157.301L209.049 161.799ZM220.14 175.54C224.21 179.72 228.949 182.97 234.331 185.276L237.482 177.923C233.064 176.03 229.203 173.38 225.872 169.959L220.14 175.54ZM234.303 185.265C239.728 187.638 246.052 188.75 253.156 188.75L253.156 180.75C246.86 180.75 241.684 179.762 237.51 177.935L234.303 185.265ZM253.156 188.75C263.505 188.75 272.534 186.288 280.02 181.148L275.492 174.552C269.579 178.612 262.207 180.75 253.156 180.75L253.156 188.75ZM280.02 181.148C287.274 176.167 293.048 169.622 297.336 161.582L290.277 157.818C286.565 164.778 281.638 170.333 275.492 174.552L280.02 181.148ZM297.355 161.545C301.44 153.69 304.408 145.132 306.277 135.893L298.436 134.307C296.704 142.868 293.973 150.71 290.257 157.855L297.355 161.545ZM306.275 135.901C308.127 126.849 309.056 117.881 309.056 109L301.056 109C301.056 117.319 300.186 125.75 298.437 134.298L306.275 135.901ZM309.056 109C309.056 99.6042 308.024 90.2633 305.961 80.9822L298.152 82.7176C300.089 91.4365 301.056 100.196 301.056 109L309.056 109ZM305.959 80.9729C303.878 71.713 300.64 63.2315 296.223 55.5551L289.289 59.5447C293.273 66.4684 296.234 74.1868 298.154 82.7269L305.959 80.9729ZM296.211 55.5344C291.729 47.8495 285.975 41.5941 278.949 36.8375L274.464 43.4623C280.437 47.5057 285.384 52.8503 289.301 59.5654L296.211 55.5344ZM278.89 36.7985C271.544 32.0126 262.908 29.6999 253.156 29.6999L253.156 37.6999C261.604 37.6999 268.668 39.6872 274.523 43.5014L278.89 36.7985ZM253.156 29.6999C242.672 29.6999 233.663 32.3321 226.425 37.8739L231.288 44.2259C236.85 39.9678 244.041 37.6999 253.156 37.6999L253.156 29.6999ZM226.417 37.8794C219.48 43.2162 213.512 50.0544 208.488 58.3229L215.325 62.477C219.901 54.9454 225.233 48.8837 231.295 44.2204L226.417 37.8794ZM213.309 56.6539L181.659 44.8039L178.854 52.296L210.504 64.1459L213.309 56.6539ZM183.888 50.2261C187.919 41.4917 193.092 33.69 199.405 26.8028L193.508 21.397C186.621 28.9098 180.993 37.4081 176.624 46.8737L183.888 50.2261ZM199.405 26.8028C205.616 20.0275 213.16 14.6412 222.088 10.6519L218.824 3.34787C208.953 7.75863 200.497 13.7723 193.508 21.397L199.405 26.8028ZM222.103 10.6454C230.782 6.72546 241.099 4.69992 253.156 4.69992L253.156 -3.30008C240.213 -3.30008 228.73 -1.12564 218.81 3.35443L222.103 10.6454ZM142.662 3.9999L146.662 3.9999L146.662 -9.90795e-05L142.662 -9.94292e-05L142.662 3.9999ZM142.662 214L142.662 218L146.662 218L146.662 214L142.662 214ZM6.46253 214L2.46253 214L2.46253 218L6.46253 218L6.46253 214ZM6.46253 181.3L6.46253 177.3L2.46253 177.3L2.46253 181.3L6.46253 181.3ZM108.012 181.3L108.012 185.3L112.012 185.3L112.012 181.3L108.012 181.3ZM108.012 128.8L112.012 128.8L112.012 124.8L108.012 124.8L108.012 128.8ZM45.7625 128.8L41.7625 128.8L41.7625 132.8L45.7625 132.8L45.7625 128.8ZM45.7625 96.0999L45.7625 92.0999L41.7625 92.0999L41.7625 96.0999L45.7625 96.0999ZM108.012 96.0999L108.012 100.1L112.012 100.1L112.012 96.0999L108.012 96.0999ZM108.012 36.9999L112.012 36.9999L112.012 32.9999L108.012 32.9999L108.012 36.9999ZM0.162496 36.9999L-3.8375 36.9999L-3.8375 40.9999L0.162496 40.9999L0.162496 36.9999ZM0.162499 3.99989L0.162499 -0.000111887L-3.8375 -0.000112237L-3.8375 3.99989L0.162499 3.99989ZM138.662 3.9999L138.662 214L146.662 214L146.662 3.9999L138.662 3.9999ZM142.662 210L6.46253 210L6.46253 218L142.662 218L142.662 210ZM10.4625 214L10.4625 181.3L2.46253 181.3L2.46253 214L10.4625 214ZM6.46253 185.3L108.012 185.3L108.012 177.3L6.46253 177.3L6.46253 185.3ZM112.012 181.3L112.012 128.8L104.012 128.8L104.012 181.3L112.012 181.3ZM108.012 124.8L45.7625 124.8L45.7625 132.8L108.012 132.8L108.012 124.8ZM49.7625 128.8L49.7625 96.0999L41.7625 96.0999L41.7625 128.8L49.7625 128.8ZM45.7625 100.1L108.012 100.1L108.012 92.0999L45.7625 92.0999L45.7625 100.1ZM112.012 96.0999L112.012 36.9999L104.012 36.9999L104.012 96.0999L112.012 96.0999ZM108.012 32.9999L0.162496 32.9999L0.162496 40.9999L108.012 40.9999L108.012 32.9999ZM4.1625 36.9999L4.1625 3.99989L-3.8375 3.99989L-3.8375 36.9999L4.1625 36.9999ZM0.162498 7.99989L142.662 7.9999L142.662 -9.94292e-05L0.162499 -0.000111887L0.162498 7.99989Z" fill="#6cfea0bd" fill-opacity="0.3"/>
<path d="M1254.6 222L1257.6 222L1257.6 219L1254.6 219L1254.6 222ZM1254.6 432L1254.6 435L1257.6 435L1257.6 432L1254.6 432ZM1118.4 432L1115.4 432L1115.4 435L1118.4 435L1118.4 432ZM1118.4 399.3L1118.4 396.3L1115.4 396.3L1115.4 399.3L1118.4 399.3ZM1219.95 399.3L1219.95 402.3L1222.95 402.3L1222.95 399.3L1219.95 399.3ZM1219.95 346.8L1222.95 346.8L1222.95 343.8L1219.95 343.8L1219.95 346.8ZM1157.7 346.8L1154.7 346.8L1154.7 349.8L1157.7 349.8L1157.7 346.8ZM1157.7 314.1L1157.7 311.1L1154.7 311.1L1154.7 314.1L1157.7 314.1ZM1219.95 314.1L1219.95 317.1L1222.95 317.1L1222.95 314.1L1219.95 314.1ZM1219.95 255L1222.95 255L1222.95 252L1219.95 252L1219.95 255ZM1112.1 255L1109.1 255L1109.1 258L1112.1 258L1112.1 255ZM1112.1 222L1112.1 219L1109.1 219L1109.1 222L1112.1 222ZM1251.6 222L1251.6 432L1257.6 432L1257.6 222L1251.6 222ZM1254.6 429L1118.4 429L1118.4 435L1254.6 435L1254.6 429ZM1121.4 432L1121.4 399.3L1115.4 399.3L1115.4 432L1121.4 432ZM1118.4 402.3L1219.95 402.3L1219.95 396.3L1118.4 396.3L1118.4 402.3ZM1222.95 399.3L1222.95 346.8L1216.95 346.8L1216.95 399.3L1222.95 399.3ZM1219.95 343.8L1157.7 343.8L1157.7 349.8L1219.95 349.8L1219.95 343.8ZM1160.7 346.8L1160.7 314.1L1154.7 314.1L1154.7 346.8L1160.7 346.8ZM1157.7 317.1L1219.95 317.1L1219.95 311.1L1157.7 311.1L1157.7 317.1ZM1222.95 314.1L1222.95 255L1216.95 255L1216.95 314.1L1222.95 314.1ZM1219.95 252L1112.1 252L1112.1 258L1219.95 258L1219.95 252ZM1115.1 255L1115.1 222L1109.1 222L1109.1 255L1115.1 255ZM1112.1 225L1254.6 225L1254.6 219L1112.1 219L1112.1 225ZM1082.69 222L1085.5 223.046L1087.01 219L1082.69 219L1082.69 222ZM1004.54 432L1004.54 435L1006.63 435L1007.35 433.046L1004.54 432ZM971.843 432L969.031 433.046L969.758 435L971.843 435L971.843 432ZM893.693 222L893.693 219L889.376 219L890.881 223.046L893.693 222ZM930.443 222L933.264 220.978L932.547 219L930.443 219L930.443 222ZM947.393 268.8L944.572 269.822L945.289 271.8L947.393 271.8L947.393 268.8ZM1028.84 268.8L1028.84 271.8L1030.96 271.8L1031.67 269.806L1028.84 268.8ZM1045.49 222L1045.49 219L1043.38 219L1042.67 220.994L1045.49 222ZM1017.74 300.15L1020.56 301.182L1022.04 297.15L1017.74 297.15L1017.74 300.15ZM958.793 300.15L958.793 297.15L954.508 297.15L955.974 301.176L958.793 300.15ZM981.893 363.6L984.722 362.602L984.717 362.588L984.712 362.574L981.893 363.6ZM983.993 369.6L981.159 370.586L981.159 370.586L983.993 369.6ZM986.393 376.35L989.226 375.364L989.22 375.345L989.212 375.325L986.393 376.35ZM988.193 382.5L985.264 383.151L991.084 383.303L988.193 382.5ZM990.143 376.35L992.976 377.336L992.99 377.298L993.002 377.26L990.143 376.35ZM992.393 369.6L989.559 368.614L989.559 368.614L992.393 369.6ZM994.493 363.6L991.676 362.568L991.67 362.585L991.664 362.602L994.493 363.6ZM1079.88 220.954L1001.73 430.954L1007.35 433.046L1085.5 223.046L1079.88 220.954ZM1004.54 429L971.843 429L971.843 435L1004.54 435L1004.54 429ZM974.655 430.954L896.505 220.954L890.881 223.046L969.031 433.046L974.655 430.954ZM893.693 225L930.443 225L930.443 219L893.693 219L893.693 225ZM927.622 223.022L944.572 269.822L950.214 267.778L933.264 220.978L927.622 223.022ZM947.393 271.8L1028.84 271.8L1028.84 265.8L947.393 265.8L947.393 271.8ZM1031.67 269.806L1048.32 223.006L1042.67 220.994L1026.02 267.794L1031.67 269.806ZM1045.49 225L1082.69 225L1082.69 219L1045.49 219L1045.49 225ZM1017.74 297.15L958.793 297.15L958.793 303.15L1017.74 303.15L1017.74 297.15ZM955.974 301.176L979.074 364.626L984.712 362.574L961.612 299.124L955.974 301.176ZM979.064 364.598C979.662 366.293 980.361 368.288 981.159 370.586L986.826 368.614C986.025 366.311 985.324 364.307 984.722 362.602L979.064 364.598ZM981.159 370.586C981.964 372.898 982.769 375.162 983.574 377.375L989.212 375.325C988.417 373.138 987.622 370.902 986.826 368.614L981.159 370.586ZM983.559 377.336C984.333 379.558 984.896 381.493 985.264 383.151L991.122 381.849C990.69 379.907 990.053 377.742 989.226 375.364L983.559 377.336ZM991.084 383.303C991.562 381.58 992.192 379.592 992.976 377.336L987.309 375.364C986.494 377.708 985.824 379.82 985.302 381.697L991.084 383.303ZM993.002 377.26C993.693 375.086 994.435 372.862 995.226 370.586L989.559 368.614C988.751 370.938 987.993 373.214 987.284 375.44L993.002 377.26ZM995.226 370.586C996.025 368.288 996.724 366.293 997.322 364.598L991.664 362.602C991.062 364.307 990.36 366.311 989.559 368.614L995.226 370.586ZM997.31 364.632L1020.56 301.182L1014.93 299.118L991.676 362.568L997.31 364.632ZM859.971 222L862.971 222L862.971 219L859.971 219L859.971 222ZM859.971 432L859.971 435L862.971 435L862.971 432L859.971 432ZM727.821 423L729.365 420.427L727.821 423ZM706.521 399.45L709.274 398.258L709.267 398.241L709.259 398.224L706.521 399.45ZM704.721 344.55L701.919 343.478L704.721 344.55ZM719.271 322.8L717.183 320.646L717.183 320.646L719.271 322.8ZM744.321 309.15L745.115 312.043L748.606 311.085L747.016 307.832L744.321 309.15ZM701.721 222L701.721 219L696.915 219L699.026 223.317L701.721 222ZM740.571 222L743.262 220.674L742.437 219L740.571 219L740.571 222ZM781.521 305.1L778.83 306.426L779.655 308.1L781.521 308.1L781.521 305.1ZM825.321 305.1L825.321 308.1L828.321 308.1L828.321 305.1L825.321 305.1ZM825.321 222L825.321 219L822.321 219L822.321 222L825.321 222ZM825.321 337.5L828.321 337.5L828.321 334.5L825.321 334.5L825.321 337.5ZM748.821 342L750.411 344.544L750.423 344.536L750.435 344.529L748.821 342ZM738.621 353.55L735.861 352.375L738.621 353.55ZM738.471 382.65L741.28 381.597L741.267 381.561L741.252 381.526L738.471 382.65ZM748.371 394.65L750.095 392.195L750.065 392.174L750.035 392.154L748.371 394.65ZM825.321 399.6L825.321 402.6L828.321 402.6L828.321 399.6L825.321 399.6ZM856.971 222L856.971 432L862.971 432L862.971 222L856.971 222ZM859.971 429L768.621 429L768.621 435L859.971 435L859.971 429ZM768.621 429C751.723 429 738.728 426.045 729.365 420.427L726.278 425.572C736.915 431.955 751.119 435 768.621 435L768.621 429ZM729.365 420.427C719.844 414.715 713.199 407.323 709.274 398.258L703.768 400.642C708.243 410.977 715.798 419.285 726.278 425.572L729.365 420.427ZM709.259 398.224C705.136 389.02 703.071 379.239 703.071 368.85L697.071 368.85C697.071 380.061 699.306 390.68 703.783 400.676L709.259 398.224ZM703.071 368.85C703.071 361.142 704.545 353.404 707.523 345.622L701.919 343.478C698.698 351.896 697.071 360.358 697.071 368.85L703.071 368.85ZM707.523 345.622C710.457 337.955 715.054 331.068 721.36 324.954L717.183 320.646C710.288 327.332 705.185 334.945 701.919 343.478L707.523 345.622ZM721.359 324.954C727.44 319.06 735.319 314.732 745.115 312.043L743.527 306.257C732.923 309.168 724.102 313.94 717.183 320.646L721.359 324.954ZM747.016 307.832L704.416 220.682L699.026 223.317L741.626 310.467L747.016 307.832ZM701.721 225L740.571 225L740.571 219L701.721 219L701.721 225ZM737.88 223.326L778.83 306.426L784.212 303.774L743.262 220.674L737.88 223.326ZM781.521 308.1L825.321 308.1L825.321 302.1L781.521 302.1L781.521 308.1ZM828.321 305.1L828.321 222L822.321 222L822.321 305.1L828.321 305.1ZM825.321 225L859.971 225L859.971 219L825.321 219L825.321 225ZM825.321 334.5L768.021 334.5L768.021 340.5L825.321 340.5L825.321 334.5ZM768.021 334.5C759.594 334.5 752.561 336.054 747.207 339.471L750.435 344.529C754.482 341.946 760.248 340.5 768.021 340.5L768.021 334.5ZM747.231 339.456C741.969 342.745 738.127 347.049 735.861 352.375L741.382 354.725C743.115 350.651 746.073 347.255 750.411 344.544L747.231 339.456ZM735.861 352.375C733.7 357.454 732.621 362.804 732.621 368.4L738.621 368.4C738.621 363.596 739.543 359.046 741.382 354.725L735.861 352.375ZM732.621 368.4C732.621 373.607 733.654 378.737 735.69 383.774L741.252 381.526C739.489 377.163 738.621 372.793 738.621 368.4L732.621 368.4ZM735.662 383.703C737.71 389.165 741.452 393.643 746.707 397.146L750.035 392.154C745.69 389.257 742.832 385.735 741.28 381.597L735.662 383.703ZM746.647 397.105C752.037 400.889 759.276 402.6 768.021 402.6L768.021 396.6C759.966 396.6 754.106 395.011 750.095 392.195L746.647 397.105ZM768.021 402.6L825.321 402.6L825.321 396.6L768.021 396.6L768.021 402.6ZM828.321 399.6L828.321 337.5L822.321 337.5L822.321 399.6L828.321 399.6ZM655.479 222L658.479 222L658.479 219L655.479 219L655.479 222ZM655.479 432L655.479 435L658.479 435L658.479 432L655.479 432ZM622.479 432L619.964 433.636L620.852 435L622.479 435L622.479 432ZM536.379 299.7L533.864 301.335L533.865 301.336L536.379 299.7ZM532.029 292.35L534.656 290.901L534.626 290.846L534.593 290.793L532.029 292.35ZM527.679 284.1L530.42 282.882L524.682 284.225L527.679 284.1ZM528.129 292.2L531.127 292.1L531.126 292.05L531.122 292L528.129 292.2ZM528.279 432L528.279 435L531.279 435L531.279 432L528.279 432ZM493.779 432L490.779 432L490.779 435L493.779 435L493.779 432ZM493.779 222L493.779 219L490.779 219L490.779 222L493.779 222ZM525.429 222L527.932 220.347L527.043 219L525.429 219L525.429 222ZM613.179 354.9L615.751 353.356L615.718 353.301L615.682 353.247L613.179 354.9ZM617.529 362.25L620.156 360.801L620.137 360.767L620.117 360.733L617.529 362.25ZM621.879 370.2L619.241 371.629L624.838 369.707L621.879 370.2ZM621.279 362.4L624.279 362.4L624.279 362.344L624.277 362.289L621.279 362.4ZM621.129 222L621.129 219L618.129 219L618.129 222L621.129 222ZM652.479 222L652.479 432L658.479 432L658.479 222L652.479 222ZM655.479 429L622.479 429L622.479 435L655.479 435L655.479 429ZM624.993 430.364L538.893 298.064L533.865 301.336L619.964 433.636L624.993 430.364ZM538.894 298.065C537.645 296.144 536.233 293.76 534.656 290.901L529.402 293.799C531.025 296.74 532.512 299.256 533.864 301.335L538.894 298.065ZM534.593 290.793C532.952 288.09 531.563 285.453 530.42 282.882L524.938 285.318C526.194 288.147 527.705 291.009 529.465 293.907L534.593 290.793ZM524.682 284.225C524.783 286.655 524.934 289.38 525.136 292.399L531.122 292C530.924 289.019 530.775 286.345 530.676 283.975L524.682 284.225ZM525.131 292.3C525.23 295.281 525.279 297.745 525.279 299.7L531.279 299.7C531.279 297.655 531.228 295.119 531.127 292.1L525.131 292.3ZM525.279 299.7L525.279 432L531.279 432L531.279 299.7L525.279 299.7ZM528.279 429L493.779 429L493.779 435L528.279 435L528.279 429ZM496.779 432L496.779 222L490.779 222L490.779 432L496.779 432ZM493.779 225L525.429 225L525.429 219L493.779 219L493.779 225ZM522.925 223.653L610.675 356.553L615.682 353.247L527.932 220.347L522.925 223.653ZM610.606 356.443C611.799 358.432 613.244 360.872 614.941 363.767L620.117 360.733C618.414 357.827 616.958 355.368 615.751 353.356L610.606 356.443ZM614.902 363.699C616.499 366.594 617.945 369.237 619.241 371.629L624.517 368.771C623.212 366.363 621.759 363.706 620.156 360.801L614.902 363.699ZM624.838 369.707C624.469 367.492 624.279 365.059 624.279 362.4L618.279 362.4C618.279 365.341 618.489 368.108 618.92 370.693L624.838 369.707ZM624.277 362.289C624.178 359.62 624.129 357.157 624.129 354.9L618.129 354.9C618.129 357.243 618.18 359.78 618.281 362.511L624.277 362.289ZM624.129 354.9L624.129 222L618.129 222L618.129 354.9L624.129 354.9ZM621.129 225L655.479 225L655.479 219L621.129 219L621.129 225Z" fill="#6cfea0bd" fill-opacity="0.27"/>
</svg>
