<svg width="30" height="21" viewBox="0 0 30 21" fill="none" xmlns="http://www.w3.org/2000/svg">
<path fill-rule="evenodd" clip-rule="evenodd" d="M11.251 18.375C11.251 18.6071 11.3498 18.8296 11.5256 18.9937C11.7014 19.1578 11.9398 19.25 12.1884 19.25H27.1876C27.4363 19.25 27.6747 19.1578 27.8505 18.9937C28.0263 18.8296 28.1251 18.6071 28.1251 18.375V2.625C28.1251 2.39294 28.0263 2.17038 27.8505 2.00628C27.6747 1.84219 27.4363 1.75 27.1876 1.75H12.1884C11.9398 1.75 11.7014 1.84219 11.5256 2.00628C11.3498 2.17038 11.251 2.39294 11.251 2.625V6.125C11.251 6.35706 11.1522 6.57962 10.9764 6.74372C10.8006 6.90781 10.5622 7 10.3135 7C10.0649 7 9.82648 6.90781 9.65067 6.74372C9.47487 6.57962 9.3761 6.35706 9.3761 6.125V2.625C9.3761 1.92881 9.6724 1.26113 10.1998 0.768845C10.7272 0.276562 11.4426 0 12.1884 0H27.1876C27.9335 0 28.6489 0.276562 29.1763 0.768845C29.7037 1.26113 30 1.92881 30 2.625V18.375C30 19.0712 29.7037 19.7389 29.1763 20.2312C28.6489 20.7234 27.9335 21 27.1876 21H12.1884C11.4426 21 10.7272 20.7234 10.1998 20.2312C9.6724 19.7389 9.3761 19.0712 9.3761 18.375V14.875C9.3761 14.6429 9.47487 14.4204 9.65067 14.2563C9.82648 14.0922 10.0649 14 10.3135 14C10.5622 14 10.8006 14.0922 10.9764 14.2563C11.1522 14.4204 11.251 14.6429 11.251 14.875V18.375Z" fill="#C90000"/>
<path fill-rule="evenodd" clip-rule="evenodd" d="M0.275411 11.1195C0.18811 11.0382 0.118846 10.9417 0.071586 10.8354C0.0243265 10.7291 0 10.6151 0 10.5C0 10.3849 0.0243265 10.271 0.071586 10.1646C0.118846 10.0583 0.18811 9.96179 0.275411 9.88051L5.90011 4.63051C5.98727 4.54915 6.09075 4.48462 6.20463 4.44059C6.31851 4.39656 6.44056 4.3739 6.56383 4.3739C6.68709 4.3739 6.80914 4.39656 6.92303 4.44059C7.03691 4.48462 7.14038 4.54915 7.22754 4.63051C7.3147 4.71186 7.38384 4.80844 7.43101 4.91474C7.47818 5.02103 7.50246 5.13496 7.50246 5.25001C7.50246 5.36506 7.47818 5.47898 7.43101 5.58528C7.38384 5.69157 7.3147 5.78815 7.22754 5.86951L3.20213 9.62501H19.6881C19.9368 9.62501 20.1752 9.71719 20.351 9.88129C20.5268 10.0454 20.6256 10.2679 20.6256 10.5C20.6256 10.7321 20.5268 10.9546 20.351 11.1187C20.1752 11.2828 19.9368 11.375 19.6881 11.375H3.20213L7.22754 15.1305C7.3147 15.2119 7.38384 15.3084 7.43101 15.4147C7.47818 15.521 7.50246 15.635 7.50246 15.75C7.50246 15.8651 7.47818 15.979 7.43101 16.0853C7.38384 16.1916 7.3147 16.2882 7.22754 16.3695C7.14038 16.4509 7.03691 16.5154 6.92303 16.5594C6.80914 16.6035 6.68709 16.6261 6.56383 16.6261C6.44056 16.6261 6.31851 16.6035 6.20463 16.5594C6.09075 16.5154 5.98727 16.4509 5.90011 16.3695L0.275411 11.1195Z" fill="#C90000"/>
</svg>
